<svg xmlns="http://www.w3.org/2000/svg" xmlns:xlink="http://www.w3.org/1999/xlink" width="200" zoomAndPan="magnify" viewBox="0 0 150 149.999998" height="200" preserveAspectRatio="xMidYMid meet" version="1.0"><defs><clipPath id="ed8875327d"><path d="M 56 19.03125 L 73 19.03125 L 73 45 L 56 45 Z M 56 19.03125 " clip-rule="nonzero"/></clipPath><clipPath id="b6ffbcf460"><path d="M 77 19.03125 L 94 19.03125 L 94 45 L 77 45 Z M 77 19.03125 " clip-rule="nonzero"/></clipPath><clipPath id="df29c12bd3"><path d="M 45 40 L 126 40 L 126 130.78125 L 45 130.78125 Z M 45 40 " clip-rule="nonzero"/></clipPath><clipPath id="ecda8b8236"><path d="M 0 19.03125 L 26 19.03125 L 26 117 L 0 117 Z M 0 19.03125 " clip-rule="nonzero"/></clipPath></defs><path fill="#000000" d="M 62.113281 72.308594 L 51.753906 72.308594 C 51.863281 75.472656 52.171875 78.625 52.679688 81.742188 L 62.113281 72.308594 " fill-opacity="1" fill-rule="nonzero"/><path fill="#000000" d="M 49.847656 47.738281 C 43.96875 46.785156 38.121094 45.492188 32.402344 43.886719 C 28.101562 50.976562 25.660156 58.992188 25.25 67.304688 L 46.746094 67.304688 C 46.953125 60.660156 47.992188 54.097656 49.847656 47.738281 " fill-opacity="1" fill-rule="nonzero"/><path fill="#000000" d="M 72.730469 61.691406 L 72.730469 49.761719 C 66.761719 49.667969 60.769531 49.230469 54.855469 48.460938 C 53.007812 54.582031 51.96875 60.898438 51.753906 67.304688 L 67.117188 67.304688 L 72.730469 61.691406 " fill-opacity="1" fill-rule="nonzero"/><path fill="#000000" d="M 63.566406 21.117188 C 52.355469 23.78125 42.433594 30.238281 35.386719 39.515625 C 40.652344 40.929688 46.027344 42.070312 51.421875 42.914062 C 54.289062 35.003906 58.363281 27.703125 63.566406 21.117188 " fill-opacity="1" fill-rule="nonzero"/><g clip-path="url(#ed8875327d)"><path fill="#000000" d="M 72.730469 44.757812 L 72.730469 19.8125 C 72.207031 19.839844 71.6875 19.875 71.171875 19.917969 C 64.75 26.886719 59.828125 34.847656 56.503906 43.628906 C 61.878906 44.289062 67.3125 44.667969 72.730469 44.757812 " fill-opacity="1" fill-rule="nonzero"/></g><g clip-path="url(#b6ffbcf460)"><path fill="#000000" d="M 93.066406 41.355469 C 89.765625 33.460938 85.140625 26.261719 79.300781 19.917969 C 78.78125 19.875 78.261719 19.839844 77.738281 19.8125 L 77.738281 44.753906 C 81.96875 44.6875 86.210938 44.4375 90.402344 44.019531 L 93.066406 41.355469 " fill-opacity="1" fill-rule="nonzero"/></g><path fill="#000000" d="M 104.921875 29.5 C 99.507812 25.503906 93.398438 22.664062 86.902344 21.117188 C 90.898438 26.175781 94.234375 31.675781 96.871094 37.550781 L 104.921875 29.5 " fill-opacity="1" fill-rule="nonzero"/><path fill="#000000" d="M 77.738281 49.761719 L 77.738281 56.683594 L 84.9375 49.484375 C 82.542969 49.628906 80.136719 49.722656 77.738281 49.761719 " fill-opacity="1" fill-rule="nonzero"/><path fill="#000000" d="M 46.746094 72.308594 L 25.246094 72.308594 C 25.738281 82.117188 29.117188 91.601562 34.929688 99.492188 L 48.390625 86.03125 C 47.445312 81.523438 46.890625 76.925781 46.746094 72.308594 " fill-opacity="1" fill-rule="nonzero"/><g clip-path="url(#df29c12bd3)"><path fill="#000000" d="M 105.269531 99.839844 C 102.503906 99.839844 100.261719 97.597656 100.261719 94.835938 C 100.261719 92.070312 102.503906 89.828125 105.269531 89.828125 C 108.03125 89.828125 110.273438 92.070312 110.273438 94.835938 C 110.273438 97.597656 108.03125 99.839844 105.269531 99.839844 Z M 90.25 99.839844 C 87.488281 99.839844 85.246094 97.597656 85.246094 94.835938 C 85.246094 92.070312 87.488281 89.828125 90.25 89.828125 C 93.015625 89.828125 95.257812 92.070312 95.257812 94.835938 C 95.257812 97.597656 93.015625 99.839844 90.25 99.839844 Z M 75.234375 99.839844 C 72.46875 99.839844 70.230469 97.597656 70.230469 94.835938 C 70.230469 92.070312 72.46875 89.828125 75.234375 89.828125 C 78 89.828125 80.238281 92.070312 80.238281 94.835938 C 80.238281 97.597656 78 99.839844 75.234375 99.839844 Z M 115.539062 40.121094 L 45.546875 110.113281 C 52.777344 115.453125 61.257812 118.726562 70.230469 119.617188 C 73.53125 119.945312 76.9375 119.945312 80.238281 119.617188 C 80.925781 119.546875 81.632812 119.460938 82.386719 119.351562 C 82.507812 119.335938 82.625 119.328125 82.742188 119.328125 C 83.34375 119.328125 83.925781 119.542969 84.382812 119.941406 C 84.929688 120.414062 85.246094 121.105469 85.246094 121.832031 L 85.246094 130.980469 L 103.527344 111.171875 C 103.652344 111.042969 103.785156 110.925781 103.933594 110.820312 C 117.308594 101.445312 125.289062 86.113281 125.289062 69.808594 C 125.289062 59.996094 122.457031 50.496094 117.089844 42.34375 C 116.597656 41.59375 116.078125 40.851562 115.539062 40.121094 " fill-opacity="1" fill-rule="nonzero"/></g><g clip-path="url(#ecda8b8236)"><path fill="#000000" d="M 20.914062 20.015625 C 7.523438 33.277344 0.152344 50.960938 0.152344 69.808594 C 0.152344 84.265625 4.671875 98.433594 12.957031 110.191406 L 10.839844 109.878906 C 9.472656 109.675781 8.203125 110.621094 8 111.988281 C 7.796875 113.355469 8.742188 114.628906 10.109375 114.832031 L 18.554688 116.082031 C 18.675781 116.101562 18.800781 116.109375 18.921875 116.109375 C 19.464844 116.109375 20 115.929688 20.4375 115.597656 C 20.972656 115.191406 21.320312 114.585938 21.40625 113.917969 L 22.34375 106.40625 C 22.515625 105.035156 21.542969 103.785156 20.171875 103.613281 C 18.796875 103.441406 17.546875 104.414062 17.378906 105.785156 L 17.164062 107.476562 C 9.394531 96.527344 5.15625 83.304688 5.15625 69.808594 C 5.15625 52.308594 12.003906 35.886719 24.4375 23.574219 C 25.417969 22.597656 25.425781 21.015625 24.453125 20.03125 C 23.480469 19.050781 21.894531 19.042969 20.914062 20.015625 " fill-opacity="1" fill-rule="nonzero"/></g><path fill="#000000" d="M 135.464844 27.257812 L 137.347656 27.257812 C 138.726562 27.257812 139.847656 26.136719 139.847656 24.757812 C 139.847656 23.375 138.726562 22.253906 137.347656 22.253906 L 129.835938 22.253906 C 128.453125 22.253906 127.335938 23.375 127.335938 24.757812 L 127.335938 32.265625 C 127.335938 33.648438 128.453125 34.765625 129.835938 34.765625 C 131.21875 34.765625 132.339844 33.648438 132.339844 32.265625 L 132.339844 31.4375 C 140.429688 42.523438 144.855469 56.023438 144.855469 69.808594 C 144.855469 87.070312 138.164062 103.335938 126.015625 115.597656 C 125.042969 116.582031 125.050781 118.164062 126.03125 119.136719 C 126.519531 119.621094 127.15625 119.863281 127.792969 119.863281 C 128.4375 119.863281 129.082031 119.617188 129.570312 119.121094 C 142.65625 105.914062 149.859375 88.398438 149.859375 69.808594 C 149.859375 54.449219 144.757812 39.417969 135.464844 27.257812 " fill-opacity="1" fill-rule="nonzero"/></svg>