<?xml version="1.0" encoding="utf-8"?>
<svg fill='white' viewBox="23.265 382.292 70.39 60.773" xmlns="http://www.w3.org/2000/svg">
  <g transform="matrix(0.056571003049612045, 0, 0, -0.056571003049612045, 124.75634002685541, 274.0470275878906)" fill="#000000" stroke="none" style="">
    <path d="M -963.605 -2012.763 C -1113.341 -2055.005 -1123.174 -2058.827 -1159.635 -2086.784 L -1172.539 -2096.641 L -1182.168 -2087.791 C -1202.446 -2069.286 -1232.148 -2056.211 -1271.681 -2048.569 C -1288.274 -2045.349 -1304.25 -2044.947 -1425.31 -2044.947 C -1499.666 -2044.947 -1572.793 -2045.149 -1587.542 -2045.551 L -1614.787 -2046.154 L -1614.787 -2388.902 L -1614.787 -2731.651 L -1447.228 -2732.254 L -1279.875 -2732.857 L -1260.211 -2738.288 C -1227.231 -2747.138 -1202.446 -2761.621 -1191.59 -2778.516 L -1186.469 -2786.361 L -1169.877 -2785.758 L -1153.285 -2785.154 L -1149.803 -2774.695 C -1145.502 -2761.419 -1137.391 -2749.862 -1125.427 -2739.494 C -1113.995 -2729.59 -1106.637 -2727.229 -1089.957 -2725.673 C -1084.221 -2723.863 -1053.951 -2724.713 -1053.747 -2724.512 C -1053.133 -2724.11 -1053.24 -2697.824 -1054.263 -2696.617 C -1055.493 -2695.009 -1114.983 -2692.512 -1126.249 -2699.954 C -1142.227 -2710.211 -1160.454 -2724.005 -1167.624 -2734.667 L -1173.565 -2743.518 L -1185.854 -2734.064 C -1192.614 -2729.035 -1203.88 -2722.196 -1210.846 -2718.978 L -1223.545 -2712.943 L -1223.545 -2660.647 L -1223.545 -2608.149 L -1260.415 -2571.943 L -1297.286 -2535.736 L -1297.286 -2491.284 L -1297.286 -2446.631 L -1290.732 -2444.015 C -1266.765 -2434.36 -1252.631 -2401.977 -1261.235 -2376.431 C -1265.536 -2363.961 -1276.188 -2351.49 -1288.683 -2344.048 C -1297.081 -2339.221 -1300.359 -2338.616 -1315.721 -2338.616 C -1335.181 -2338.616 -1340.916 -2340.829 -1354.846 -2353.099 C -1366.112 -2363.155 -1371.437 -2374.219 -1372.668 -2390.109 C -1373.486 -2401.574 -1372.872 -2405.195 -1367.955 -2415.855 C -1361.811 -2428.929 -1350.134 -2441.2 -1340.097 -2444.618 L -1334.157 -2446.631 L -1334.157 -2497.317 L -1334.157 -2547.805 L -1296.261 -2585.017 L -1258.367 -2622.228 L -1258.367 -2662.256 L -1258.367 -2702.081 L -1265.128 -2700.875 C -1285.815 -2697.054 -1322.277 -2695.646 -1406.26 -2695.646 L -1500.077 -2695.646 L -1500.077 -2677.945 L -1500.077 -2660.446 L -1482.05 -2642.745 C -1461.361 -2622.631 -1455.217 -2620.418 -1450.095 -2631.883 C -1445.59 -2642.142 -1431.046 -2654.814 -1418.345 -2659.641 C -1390.078 -2670.1 -1360.783 -2654.069 -1346.296 -2628.428 C -1340.613 -2618.373 -1340.04 -2593.383 -1346.222 -2583.081 C -1360.761 -2558.859 -1380.427 -2544.049 -1411.205 -2548.499 C -1414.98 -2549.044 -1418.127 -2550.735 -1420.906 -2552.14 C -1442.801 -2563.189 -1444.5 -2569.883 -1451.15 -2580.827 L -1453.577 -2589.04 L -1466.073 -2589.04 L -1478.569 -2589.04 L -1507.86 -2617.803 L -1536.947 -2646.366 L -1536.947 -2671.105 L -1536.947 -2695.646 L -1557.431 -2695.646 L -1577.915 -2695.646 L -1577.915 -2594.068 L -1577.915 -2492.491 L -1533.874 -2492.491 L -1490.039 -2492.491 L -1486.558 -2499.933 C -1481.641 -2509.79 -1470.579 -2520.45 -1459.723 -2525.075 C -1421.213 -2541.771 -1379.017 -2515.221 -1379.427 -2474.387 C -1379.427 -2467.147 -1380.654 -2457.894 -1382.089 -2453.871 C -1389.464 -2433.556 -1412.61 -2418.069 -1435.347 -2418.069 C -1456.445 -2418.069 -1476.519 -2429.735 -1485.942 -2447.033 L -1490.858 -2456.285 L -1534.285 -2456.285 L -1577.915 -2456.285 L -1577.915 -2349.68 L -1577.915 -2243.073 L -1565.829 -2243.073 L -1553.743 -2243.073 L -1529.777 -2265.602 L -1506.016 -2288.331 L -1509.293 -2301.003 C -1519.126 -2338.215 -1491.883 -2372.611 -1452.963 -2372.409 C -1392.536 -2372.208 -1373.895 -2292.555 -1427.974 -2265.2 C -1439.649 -2259.166 -1459.314 -2257.757 -1471.399 -2261.982 L -1480.616 -2265.2 L -1510.318 -2236.034 L -1540.019 -2206.867 L -1559.07 -2206.867 L -1577.915 -2206.867 L -1577.915 -2143.91 L -1577.915 -2080.752 L -1523.632 -2079.343 C -1493.727 -2078.539 -1468.325 -2078.539 -1467.303 -2079.142 C -1466.073 -2079.946 -1465.253 -2096.641 -1465.253 -2119.974 L -1465.253 -2159.599 L -1427.154 -2197.012 L -1389.054 -2234.625 L -1391.512 -2242.27 C -1400.115 -2267.814 -1388.234 -2296.778 -1364.269 -2308.847 C -1334.772 -2323.33 -1299.949 -2312.467 -1285.815 -2284.107 C -1264.307 -2240.861 -1306.709 -2190.978 -1352.388 -2205.661 L -1362.629 -2208.879 L -1396.428 -2175.288 L -1430.43 -2141.497 L -1429.817 -2110.319 L -1429.407 -2079.142 L -1373.076 -2078.539 C -1298.925 -2077.734 -1268.609 -2081.153 -1237.883 -2093.423 C -1223.134 -2099.256 -1215.76 -2103.881 -1205.519 -2113.134 C -1191.999 -2125.405 -1192.82 -2114.342 -1192.82 -2292.756 L -1192.82 -2455.279 L -1198.349 -2457.694 C -1217.604 -2466.142 -1230.509 -2486.658 -1230.509 -2508.381 C -1230.509 -2531.714 -1219.039 -2549.415 -1197.94 -2559.07 C -1168.033 -2573.15 -1134.031 -2560.679 -1120.51 -2530.708 C -1108.836 -2504.761 -1121.944 -2468.958 -1146.73 -2458.9 L -1155.948 -2455.279 L -1155.948 -2293.158 L -1155.948 -2131.037 L -1147.14 -2122.991 C -1113.956 -2093.021 -1102.69 -2088.395 -970.979 -2051.383 L -860.981 -2020.207 L -860.981 -2206.063 L -860.981 -2391.92 L -843.57 -2391.92 L -826.159 -2391.92 L -826.159 -2183.736 C -826.159 -1986.817 -826.364 -1975.553 -829.64 -1975.755 C -831.69 -1975.955 -891.912 -1992.449 -963.605 -2012.763 Z M -1321.661 -2244.884 C -1311.01 -2255.343 -1314.492 -2273.848 -1328.013 -2279.279 C -1340.301 -2284.308 -1354.642 -2277.267 -1357.714 -2264.597 C -1363.039 -2244.281 -1337.025 -2230 -1321.661 -2244.884 Z M -1444.769 -2296.376 C -1436.577 -2300.4 -1432.479 -2307.037 -1432.479 -2315.485 C -1432.479 -2329.766 -1446.613 -2340.025 -1460.338 -2335.599 C -1479.387 -2329.364 -1480.822 -2304.019 -1462.181 -2296.175 C -1454.192 -2292.756 -1451.938 -2292.756 -1444.769 -2296.376 Z M -1300.769 -2380.052 C -1290.527 -2390.915 -1294.828 -2408.011 -1309.372 -2414.046 C -1322.071 -2419.073 -1338.255 -2407.81 -1338.255 -2393.931 C -1338.255 -2385.885 -1331.084 -2376.23 -1323.505 -2374.017 C -1314.083 -2371.201 -1307.323 -2373.012 -1300.769 -2380.052 Z M -1421.009 -2458.498 C -1409.947 -2468.555 -1413.634 -2487.061 -1427.769 -2493.497 C -1434.118 -2496.514 -1435.961 -2496.514 -1442.107 -2494.1 C -1460.747 -2487.261 -1463 -2463.929 -1445.999 -2455.279 C -1438.01 -2451.256 -1427.359 -2452.665 -1421.009 -2458.498 Z M -1158.816 -2492.692 C -1149.393 -2501.34 -1150.622 -2518.841 -1161.274 -2525.679 C -1168.033 -2530.105 -1180.939 -2529.501 -1187.287 -2524.674 C -1190.156 -2522.462 -1193.638 -2517.432 -1194.867 -2513.611 C -1201.422 -2494.1 -1174.384 -2478.411 -1158.816 -2492.692 Z M -1389.464 -2588.033 C -1375.944 -2594.873 -1372.668 -2611.165 -1383.114 -2621.222 C -1390.488 -2628.465 -1398.068 -2630.475 -1406.057 -2627.256 C -1414.659 -2623.636 -1420.189 -2615.993 -1420.189 -2607.344 C -1420.189 -2598.292 -1415.683 -2591.453 -1407.079 -2587.833 C -1398.886 -2584.414 -1396.633 -2584.414 -1389.464 -2588.033 Z" style="stroke: rgb(39, 77, 130); fill: rgb(39, 77, 130); stroke-miterlimit: 20.53;"/>
    <path d="M -828.207 -2062.044 L -828.207 -2080.147 L -814.893 -2080.147 L -801.578 -2080.147 L -801.578 -2261.176 L -801.578 -2442.205 L -784.166 -2442.205 L -766.755 -2442.205 L -766.755 -2243.073 L -766.755 -2043.943 L -797.481 -2043.943 L -828.207 -2043.943 L -828.207 -2062.044 Z" style="stroke: rgb(39, 77, 130); fill: rgb(39, 77, 130); stroke-miterlimit: 20.53;"/>
    <path d="M -1697.25 -2455.165 L -1696.635 -2783.631 L -1691.106 -2793.086 C -1686.803 -2799.925 -1682.706 -2803.746 -1674.716 -2807.568 L -1664.066 -2812.798 L -1474.386 -2812.798 L -1284.501 -2812.798 L -1277.537 -2817.424 C -1272.62 -2820.643 -1267.909 -2827.078 -1261.969 -2838.946 C -1252.138 -2858.458 -1243.329 -2867.107 -1226.941 -2873.141 C -1217.314 -2876.761 -1211.17 -2877.164 -1171.637 -2877.164 C -1123.089 -2877.164 -1115.509 -2875.957 -1101.376 -2866.703 C -1090.316 -2859.464 -1083.966 -2851.014 -1076.795 -2834.32 C -1073.312 -2825.671 -1069.421 -2820.441 -1064.71 -2817.223 L -1057.95 -2812.798 L -908.828 -2812.798 L -759.501 -2812.798 L -759.501 -2794.695 L -759.501 -2776.39 L -912.515 -2776.995 L -1065.734 -2777.598 L -1078.639 -2784.437 C -1093.593 -2792.482 -1099.532 -2799.321 -1109.774 -2819.436 C -1120.836 -2841.561 -1121.655 -2841.763 -1164.876 -2842.566 C -1205.638 -2843.372 -1216.085 -2841.763 -1224.278 -2833.113 C -1227.146 -2829.895 -1231.244 -2822.654 -1233.291 -2816.82 C -1238.207 -2802.942 -1254.391 -2786.851 -1268.524 -2781.419 C -1278.356 -2777.798 -1287.164 -2777.598 -1469.674 -2776.995 L -1660.789 -2776.39 L -1660.789 -2468.842 L -1660.789 -2161.094 L -1648.499 -2161.094 L -1636.208 -2161.094 L -1636.208 -2143.997 L -1636.208 -2126.9 L -1666.934 -2126.9 L -1697.659 -2126.9 L -1697.25 -2455.165 Z" style="stroke: rgb(39, 77, 130); fill: rgb(39, 77, 130); stroke-miterlimit: 20.53;"/>
    <path d="M -756.613 -2166.743 L -756.613 -2183.84 L -743.299 -2183.84 L -729.985 -2183.84 L -729.985 -2454.378 L -729.985 -2724.915 L -712.574 -2724.915 L -695.162 -2724.915 L -695.162 -2437.281 L -695.162 -2149.647 L -725.887 -2149.647 L -756.613 -2149.647 L -756.613 -2166.743 Z" style="stroke: rgb(39, 77, 130); fill: rgb(39, 77, 130); stroke-miterlimit: 20.53;"/>
    <path d="M -945.988 -2437.176 C -1004.162 -2449.848 -1050.456 -2493.094 -1066.844 -2550.822 C -1072.171 -2568.926 -1072.171 -2608.752 -1067.049 -2628.262 C -1063.156 -2642.544 -1054.348 -2661.853 -1044.311 -2677.744 C -1035.505 -2691.421 -1008.669 -2715.961 -991.872 -2725.215 C -942.097 -2752.971 -875.32 -2751.563 -828.207 -2721.593 C -821.243 -2717.168 -814.893 -2713.546 -814.073 -2713.144 C -812.844 -2712.943 -705.509 -2814.321 -673.963 -2845.699 C -672.325 -2847.509 -649.998 -2826.79 -649.998 -2823.372 C -649.998 -2822.366 -680.929 -2790.987 -718.824 -2753.776 L -787.649 -2686.192 L -778.636 -2671.307 C -766.755 -2651.595 -761.635 -2639.526 -757.742 -2620.82 C -750.573 -2586.425 -756.105 -2548.812 -773.106 -2516.226 C -779.866 -2503.152 -786.214 -2495.307 -801.373 -2480.22 C -818.99 -2462.923 -823.291 -2459.705 -842.546 -2450.653 C -875.729 -2435.166 -913.42 -2430.137 -945.988 -2437.176 Z M -876.754 -2472.175 C -856.474 -2479.014 -840.087 -2488.87 -825.954 -2502.95 C -787.034 -2541.167 -778.432 -2596.282 -803.627 -2645.359 C -812.434 -2662.457 -838.653 -2688.404 -855.859 -2696.449 C -905.226 -2719.984 -961.557 -2711.536 -999.246 -2674.727 C -1023.008 -2651.595 -1033.865 -2628.262 -1036.323 -2595.074 C -1038.781 -2563.293 -1025.262 -2527.892 -1002.116 -2504.761 C -983.065 -2485.852 -958.485 -2472.98 -932.676 -2468.153 C -918.745 -2465.738 -890.067 -2467.75 -876.754 -2472.175 Z" style="stroke: rgb(39, 77, 130); fill: rgb(39, 77, 130); stroke-miterlimit: 20.53;"/>
  </g>
</svg>


